<svg xmlns="http://www.w3.org/2000/svg" viewBox="0 0 1600 1000" width="1600" height="1000" role="img" aria-label="Health DNA preview">
  <defs>
    <linearGradient id="hbg" x1="0%" y1="0%" x2="0%" y2="100%">
      <stop offset="0%" style="stop-color:#f6faf6"/>
      <stop offset="100%" style="stop-color:#e6eee6"/>
    </linearGradient>
  </defs>
  <rect width="1600" height="1000" fill="url(#hbg)"/>
  <rect x="100" y="100" width="500" height="800" rx="20" fill="#fff" stroke="#d4ddd4" stroke-width="2"/>
  <rect x="640" y="100" width="860" height="800" rx="20" fill="#fff" stroke="#d4ddd4" stroke-width="2"/>
  <rect x="140" y="160" width="180" height="16" rx="4" fill="#2d5a3d" opacity="0.5"/>
  <rect x="140" y="220" width="420" height="72" rx="12" fill="#eef5ee" stroke="#c5d4c5"/>
  <rect x="140" y="320" width="420" height="72" rx="12" fill="#eef5ee" stroke="#c5d4c5"/>
  <rect x="140" y="420" width="420" height="72" rx="12" fill="#eef5ee" stroke="#c5d4c5"/>
  <path d="M700 200 Q800 280 900 200 T1100 200" fill="none" stroke="#2d5a3d" stroke-width="4" opacity="0.35"/>
  <path d="M700 400 L900 320 L1100 400 L900 480 Z" fill="#c9a227" opacity="0.2" stroke="#2d5a3d" stroke-width="2"/>
  <circle cx="900" cy="400" r="8" fill="#2d5a3d" opacity="0.6"/>
  <rect x="700" y="520" width="740" height="340" rx="16" fill="#f0f6f0" stroke="#c5d4c5"/>
  <text x="1070" y="700" text-anchor="middle" fill="#2d5a3d" opacity="0.25" font-family="system-ui,sans-serif" font-size="48" font-weight="600">DNA</text>
</svg>
