<svg xmlns="http://www.w3.org/2000/svg" viewBox="0 0 1600 1000" width="1600" height="1000" role="img" aria-label="Add members preview">
  <defs>
    <linearGradient id="bgd" x1="0%" y1="0%" x2="100%" y2="100%">
      <stop offset="0%" style="stop-color:#0f1412"/>
      <stop offset="100%" style="stop-color:#1a221e"/>
    </linearGradient>
  </defs>
  <rect width="1600" height="1000" fill="url(#bgd)"/>
  <rect x="120" y="80" width="1360" height="56" rx="12" fill="#141c18" stroke="#2a3830" stroke-width="2"/>
  <rect x="140" y="98" width="120" height="20" rx="4" fill="#c9a227" opacity="0.45"/>
  <rect x="120" y="180" width="520" height="720" rx="16" fill="#141c18" stroke="#2a3830" stroke-width="2"/>
  <rect x="680" y="180" width="800" height="720" rx="16" fill="#141c18" stroke="#2a3830" stroke-width="2"/>
  <rect x="160" y="220" width="200" height="14" rx="3" fill="#8fbc8f" opacity="0.5"/>
  <rect x="160" y="260" width="440" height="48" rx="8" fill="#0f1814" stroke="#2a3830"/>
  <rect x="160" y="330" width="440" height="48" rx="8" fill="#0f1814" stroke="#2a3830"/>
  <rect x="160" y="400" width="440" height="48" rx="8" fill="#0f1814" stroke="#2a3830"/>
  <rect x="160" y="500" width="200" height="44" rx="10" fill="#c9a227" opacity="0.55"/>
  <rect x="720" y="240" width="320" height="14" rx="3" fill="#8fbc8f" opacity="0.4"/>
  <path d="M720 320 L1080 380 L720 440 Z" fill="none" stroke="#c9a227" stroke-width="2" opacity="0.35"/>
  <circle cx="900" cy="480" r="120" fill="none" stroke="#c9a227" stroke-width="2" opacity="0.35"/>
  <circle cx="900" cy="480" r="60" fill="#c9a227" opacity="0.12"/>
</svg>
