<svg xmlns="http://www.w3.org/2000/svg" viewBox="0 0 1600 1000" width="1600" height="1000" role="img" aria-label="Health DNA preview">
  <defs>
    <linearGradient id="hbgd" x1="0%" y1="0%" x2="0%" y2="100%">
      <stop offset="0%" style="stop-color:#0c100e"/>
      <stop offset="100%" style="stop-color:#151d18"/>
    </linearGradient>
  </defs>
  <rect width="1600" height="1000" fill="url(#hbgd)"/>
  <rect x="100" y="100" width="500" height="800" rx="20" fill="#121a16" stroke="#2a3830" stroke-width="2"/>
  <rect x="640" y="100" width="860" height="800" rx="20" fill="#121a16" stroke="#2a3830" stroke-width="2"/>
  <rect x="140" y="160" width="180" height="16" rx="4" fill="#8fbc8f" opacity="0.55"/>
  <rect x="140" y="220" width="420" height="72" rx="12" fill="#0f1814" stroke="#2a3830"/>
  <rect x="140" y="320" width="420" height="72" rx="12" fill="#0f1814" stroke="#2a3830"/>
  <rect x="140" y="420" width="420" height="72" rx="12" fill="#0f1814" stroke="#2a3830"/>
  <path d="M700 200 Q800 280 900 200 T1100 200" fill="none" stroke="#c9a227" stroke-width="3" opacity="0.4"/>
  <path d="M700 400 L900 320 L1100 400 L900 480 Z" fill="#c9a227" opacity="0.15" stroke="#8fbc8f" stroke-width="2"/>
  <circle cx="900" cy="400" r="8" fill="#c9a227" opacity="0.7"/>
  <rect x="700" y="520" width="740" height="340" rx="16" fill="#0f1814" stroke="#2a3830"/>
  <text x="1070" y="700" text-anchor="middle" fill="#8fbc8f" opacity="0.2" font-family="system-ui,sans-serif" font-size="48" font-weight="600">DNA</text>
</svg>
